<svg id="svg" version="1.1" width="402" height="350" xmlns="http://www.w3.org/2000/svg" xmlns:xlink="http://www.w3.org/1999/xlink" style="display: block;"><g id="svgg"><path id="path0" d="M195.174 3.306 C 191.003 6.116,190.750 27.914,194.819 33.828 C 198.076 38.562,202.159 37.670,204.396 31.736 C 207.498 23.510,207.117 5.210,203.799 3.036 C 202.204 1.991,196.877 2.158,195.174 3.306 M123.600 18.499 C 122.122 19.157,118.903 22.677,118.408 24.176 C 117.269 27.627,126.899 39.552,134.600 44.228 C 145.078 50.591,149.864 43.711,142.162 33.359 C 139.728 30.088,131.309 21.330,129.605 20.295 C 128.832 19.826,128.110 19.327,128.000 19.187 C 127.787 18.915,125.245 17.982,124.840 18.027 C 124.708 18.042,124.150 18.254,123.600 18.499 M273.400 20.871 C 272.740 21.118,272.110 21.428,272.000 21.560 C 271.890 21.692,271.170 22.242,270.400 22.782 C 261.892 28.747,254.400 38.604,254.400 43.834 C 254.400 48.621,261.969 49.412,266.587 45.107 C 266.886 44.828,267.727 44.150,268.456 43.600 C 272.053 40.886,279.904 33.133,281.505 30.713 C 284.789 25.751,279.035 18.765,273.400 20.871 M161.600 64.984 C 155.728 65.272,149.573 65.790,147.800 66.145 C 142.312 67.242,140.298 67.676,137.200 68.429 C 132.220 69.638,130.638 70.054,129.800 70.373 C 129.360 70.540,126.965 71.347,124.478 72.167 C 116.598 74.765,109.680 78.413,105.860 81.986 C 95.079 92.068,110.304 105.718,139.600 112.234 C 151.194 114.813,165.199 115.602,199.400 115.602 C 233.623 115.602,243.456 114.926,263.400 111.201 C 265.724 110.767,271.770 109.081,273.400 108.413 C 273.840 108.232,275.100 107.769,276.200 107.383 C 294.462 100.973,300.978 90.574,292.194 81.860 C 289.570 79.257,287.778 77.827,286.000 76.917 C 285.230 76.522,284.510 76.110,284.400 76.000 C 284.131 75.731,280.232 73.827,278.000 72.875 C 274.729 71.480,270.630 70.205,268.200 69.827 C 267.320 69.690,265.160 69.235,263.400 68.816 C 257.330 67.370,252.590 66.434,249.200 66.010 C 239.152 64.753,180.329 64.064,161.600 64.984 M202.200 77.203 C 229.473 78.316,237.416 78.792,242.400 79.613 C 243.830 79.848,246.080 80.213,247.400 80.424 C 267.650 83.659,279.998 87.454,278.972 90.129 C 278.323 91.821,269.551 94.981,259.400 97.179 C 257.200 97.656,254.680 98.212,253.800 98.415 C 245.979 100.220,232.144 100.819,198.400 100.815 C 156.195 100.809,150.619 100.360,132.000 95.463 C 125.308 93.703,119.422 90.975,119.675 89.750 C 119.944 88.448,126.190 85.945,134.000 84.010 C 135.870 83.547,137.760 83.070,138.200 82.952 C 139.929 82.484,150.034 80.671,154.800 79.974 C 156.230 79.764,160.370 79.329,164.000 79.005 C 173.704 78.141,178.449 77.604,179.800 77.216 C 181.492 76.731,190.495 76.726,202.200 77.203 M31.000 103.506 C 28.802 104.470,11.650 113.094,3.651 117.257 C -0.847 119.597,-1.341 116.256,7.196 141.200 C 8.965 146.370,11.315 153.300,12.416 156.600 C 13.518 159.900,14.572 162.876,14.759 163.213 C 14.946 163.550,15.234 164.444,15.400 165.200 C 15.566 165.956,15.849 166.850,16.028 167.187 C 16.207 167.524,16.917 169.510,17.604 171.600 C 18.782 175.182,19.530 177.283,23.796 189.000 C 24.757 191.640,26.290 195.870,27.202 198.400 C 28.114 200.930,29.009 203.360,29.190 203.800 C 29.372 204.240,30.188 206.490,31.004 208.800 C 32.761 213.770,35.552 221.468,36.009 222.600 C 36.186 223.040,36.825 224.807,37.429 226.526 C 38.911 230.749,31.708 223.151,92.061 284.144 L 104.322 296.535 104.099 323.867 L 103.877 351.200 149.238 351.134 C 174.187 351.098,192.890 350.945,190.800 350.795 C 185.499 350.414,183.451 349.509,184.811 348.149 C 186.657 346.303,187.374 254.579,185.600 247.200 C 184.450 242.414,176.099 233.426,150.848 209.800 C 149.438 208.480,147.530 206.680,146.610 205.800 C 145.145 204.400,141.637 201.154,133.641 193.800 C 132.445 192.700,130.993 191.350,130.415 190.800 C 129.836 190.250,128.229 188.810,126.844 187.600 C 125.459 186.390,123.654 184.770,122.833 184.000 C 119.820 181.174,117.344 178.950,115.035 176.999 C 113.734 175.899,112.197 174.550,111.620 174.000 C 111.043 173.450,110.125 172.640,109.582 172.200 C 107.924 170.858,103.862 167.444,103.006 166.673 C 99.523 163.535,92.119 163.799,89.600 167.152 C 89.490 167.299,88.860 167.762,88.200 168.181 C 87.540 168.601,85.920 169.823,84.600 170.898 C 82.258 172.805,81.428 173.467,78.252 175.969 C 76.260 177.539,76.723 178.082,71.884 168.500 C 58.201 141.404,52.323 129.924,50.121 126.000 C 49.689 125.230,48.559 123.160,47.608 121.400 C 46.658 119.640,45.548 117.722,45.140 117.138 C 44.733 116.554,44.400 115.894,44.400 115.672 C 44.400 115.449,44.265 115.207,44.100 115.133 C 43.935 115.060,43.372 114.190,42.850 113.200 C 41.592 110.818,37.674 104.885,36.445 103.500 C 35.226 102.128,34.137 102.129,31.000 103.506 M362.689 104.500 C 361.036 106.460,358.509 110.149,357.308 112.359 C 357.021 112.887,356.175 114.327,355.428 115.559 C 353.575 118.618,349.279 126.828,343.897 137.600 C 341.424 142.550,339.310 146.690,339.200 146.800 C 339.090 146.910,338.100 148.800,337.000 151.000 C 335.900 153.200,334.910 155.090,334.800 155.200 C 334.690 155.310,334.403 155.760,334.161 156.200 C 333.342 157.694,330.670 162.593,329.761 164.268 C 328.285 166.989,323.796 173.756,323.076 174.345 C 321.696 175.474,316.940 173.099,312.326 168.975 C 308.549 165.599,308.723 165.729,306.440 164.583 C 302.208 162.457,299.261 163.353,294.000 168.366 C 292.570 169.729,290.590 171.586,289.600 172.493 C 287.672 174.260,278.417 182.884,275.963 185.200 C 275.147 185.970,273.077 187.860,271.362 189.400 C 269.647 190.940,267.490 192.920,266.567 193.800 C 264.945 195.348,258.596 201.215,256.452 203.148 C 244.042 214.333,224.307 233.842,218.800 240.368 C 213.324 246.857,213.452 245.685,213.449 289.400 C 213.447 328.275,213.933 342.611,215.458 348.687 C 215.774 349.948,214.343 350.446,209.400 350.793 C 207.200 350.948,225.785 351.103,250.700 351.137 L 296.000 351.200 296.014 323.900 L 296.029 296.600 301.475 291.000 C 304.470 287.920,319.179 273.023,334.161 257.895 C 349.142 242.767,361.518 230.077,361.662 229.695 C 361.805 229.313,362.492 227.380,363.186 225.400 C 363.881 223.420,364.967 220.360,365.600 218.600 C 366.233 216.840,367.320 213.780,368.017 211.800 C 368.713 209.820,369.442 207.840,369.636 207.400 C 369.830 206.960,371.330 202.550,372.969 197.600 C 374.609 192.650,376.566 186.800,377.319 184.600 C 379.279 178.873,380.216 176.061,382.051 170.400 C 382.942 167.650,383.828 165.040,384.019 164.600 C 384.210 164.160,385.472 160.380,386.823 156.200 C 388.174 152.020,389.433 148.240,389.620 147.800 C 389.982 146.951,394.153 134.637,395.108 131.600 C 395.419 130.610,395.831 129.440,396.024 129.000 C 396.555 127.787,400.001 117.308,399.993 116.931 C 399.986 116.608,397.099 115.144,390.600 112.167 C 385.337 109.757,380.648 107.561,379.860 107.140 C 379.453 106.922,377.473 106.108,375.460 105.332 C 365.774 101.598,365.172 101.558,362.689 104.500 M29.920 121.100 C 31.185 122.699,36.634 131.476,38.736 135.300 C 39.431 136.565,40.520 138.545,41.156 139.700 C 41.792 140.855,44.333 145.760,46.804 150.600 C 52.895 162.533,57.499 171.431,58.706 173.600 C 59.257 174.590,60.340 176.570,61.114 178.000 C 63.438 182.296,67.070 187.953,68.177 189.000 C 68.410 189.220,69.400 190.480,70.378 191.800 C 71.356 193.120,72.346 194.380,72.578 194.600 C 72.810 194.820,73.893 196.170,74.984 197.600 C 76.076 199.030,77.071 200.290,77.195 200.400 C 77.319 200.510,78.041 201.410,78.800 202.400 C 79.559 203.390,80.281 204.290,80.405 204.400 C 80.529 204.510,81.524 205.770,82.616 207.200 C 83.707 208.630,84.713 209.890,84.852 210.000 C 84.990 210.110,85.783 211.100,86.614 212.200 C 87.446 213.300,88.241 214.290,88.382 214.400 C 88.522 214.510,89.527 215.770,90.614 217.200 C 93.080 220.444,93.647 221.157,94.400 221.960 C 94.730 222.312,95.846 223.680,96.880 225.000 C 97.914 226.320,99.323 228.030,100.010 228.800 C 100.697 229.570,102.191 231.279,103.330 232.597 C 111.017 241.498,113.536 242.925,116.439 240.023 C 120.800 235.661,118.572 229.684,107.111 215.000 C 106.669 214.434,103.785 210.757,100.835 207.000 C 99.453 205.240,98.023 203.440,97.656 203.000 C 97.290 202.560,96.101 201.030,95.014 199.600 C 93.927 198.170,92.932 196.910,92.803 196.800 C 92.674 196.690,91.676 195.430,90.584 194.000 C 89.493 192.570,88.505 191.310,88.390 191.200 C 87.082 189.956,85.627 187.600,86.166 187.600 C 86.515 187.600,86.800 187.441,86.800 187.247 C 86.800 187.052,87.115 186.774,87.500 186.629 C 88.815 186.133,90.000 185.411,90.000 185.105 C 90.000 184.937,90.257 184.800,90.571 184.800 C 90.886 184.800,91.426 184.517,91.771 184.172 C 92.117 183.826,93.411 183.033,94.648 182.409 C 98.233 180.601,99.075 181.104,110.022 191.600 C 113.078 194.531,117.599 198.784,122.990 203.800 C 126.064 206.660,129.933 210.271,131.589 211.824 C 133.245 213.378,135.578 215.538,136.773 216.624 C 137.969 217.711,139.786 219.410,140.811 220.400 C 141.837 221.390,143.829 223.263,145.238 224.563 C 149.108 228.133,158.705 237.201,164.364 242.636 C 167.134 245.296,170.116 248.114,170.991 248.897 L 172.582 250.322 172.453 293.261 C 172.382 316.877,172.253 336.273,172.167 336.361 C 172.081 336.450,164.133 336.664,154.505 336.837 C 144.877 337.009,132.725 337.280,127.500 337.439 L 118.000 337.728 118.000 313.644 L 118.000 289.559 84.636 256.209 C 66.286 237.866,51.155 222.440,51.011 221.929 C 50.867 221.418,50.594 220.640,50.404 220.200 C 50.214 219.760,49.487 217.780,48.788 215.800 C 48.089 213.820,47.373 211.840,47.196 211.400 C 46.814 210.447,45.063 205.632,43.777 202.000 C 43.271 200.570,42.108 197.330,41.192 194.800 C 40.277 192.270,38.750 188.040,37.800 185.400 C 36.849 182.760,35.322 178.530,34.405 176.000 C 33.488 173.470,32.195 169.870,31.532 168.000 C 30.868 166.130,29.904 163.430,29.389 162.000 C 25.376 150.851,21.849 140.477,20.618 136.200 C 20.238 134.880,19.745 133.350,19.523 132.800 C 18.864 131.173,18.631 125.864,19.173 124.850 C 19.782 123.713,23.515 121.316,26.161 120.363 C 28.793 119.415,28.549 119.367,29.920 121.100 M375.000 120.911 C 379.624 122.631,384.056 124.872,383.864 125.394 C 383.781 125.618,383.041 127.780,382.218 130.200 C 381.396 132.620,380.470 135.167,380.161 135.860 C 379.853 136.554,379.600 137.321,379.600 137.566 C 379.600 137.811,379.430 138.323,379.223 138.705 C 379.015 139.087,378.103 141.470,377.195 144.000 C 376.287 146.530,374.757 150.760,373.796 153.400 C 372.835 156.040,371.334 160.180,370.461 162.600 C 366.118 174.635,361.300 187.801,358.751 194.604 C 357.678 197.467,356.794 199.987,356.786 200.204 C 356.779 200.422,356.425 201.320,356.000 202.200 C 355.575 203.080,355.221 204.079,355.214 204.420 C 355.206 204.761,355.056 205.211,354.881 205.420 C 354.705 205.629,354.237 206.790,353.840 208.000 C 353.444 209.210,352.884 210.740,352.598 211.400 C 352.311 212.060,351.503 214.310,350.801 216.400 C 350.100 218.490,349.200 220.920,348.802 221.800 C 348.294 222.922,338.200 233.303,315.039 256.524 L 282.000 289.648 282.000 300.428 C 282.000 312.776,281.011 331.670,280.249 333.870 C 279.415 336.279,278.298 336.416,257.320 336.675 C 247.376 336.798,236.621 336.768,233.420 336.608 L 227.600 336.317 227.600 293.544 L 227.600 250.772 235.127 243.286 C 242.278 236.174,252.525 226.328,258.576 220.756 C 260.103 219.350,262.186 217.390,263.206 216.400 C 264.226 215.410,266.733 213.070,268.777 211.200 C 270.822 209.330,273.075 207.260,273.785 206.600 C 274.495 205.940,277.214 203.420,279.827 201.000 C 282.439 198.580,285.662 195.590,286.988 194.357 C 288.315 193.123,290.120 191.473,291.000 190.691 C 291.880 189.908,293.410 188.530,294.400 187.628 C 297.125 185.143,301.413 182.380,302.923 182.135 C 305.503 181.716,312.000 185.841,312.000 187.897 C 312.000 189.051,304.654 199.963,299.518 206.436 C 298.923 207.186,297.262 209.330,295.827 211.200 C 294.391 213.070,293.072 214.780,292.895 215.000 C 292.718 215.220,291.907 216.300,291.093 217.400 C 290.278 218.500,289.469 219.580,289.294 219.800 C 284.124 226.309,280.770 233.397,281.751 235.744 C 282.771 238.187,286.345 240.701,288.152 240.248 C 289.259 239.970,293.524 235.885,297.600 231.198 C 299.030 229.554,300.394 228.026,300.630 227.804 C 300.867 227.582,301.947 226.321,303.030 225.003 C 304.114 223.684,305.180 222.395,305.400 222.138 C 306.441 220.922,308.574 218.294,311.066 215.155 C 312.569 213.260,314.340 211.030,315.000 210.199 C 317.408 207.166,319.755 204.082,323.826 198.600 C 326.114 195.520,328.130 192.820,328.307 192.600 C 329.309 191.356,336.800 179.899,336.800 179.611 C 336.800 179.422,336.944 179.207,337.120 179.133 C 337.491 178.979,343.600 169.071,343.600 168.623 C 343.600 168.458,343.939 167.846,344.353 167.262 C 344.767 166.678,345.640 165.210,346.292 164.000 C 346.944 162.790,348.161 160.540,348.995 159.000 C 349.830 157.460,352.900 151.520,355.819 145.800 C 358.737 140.080,361.781 134.230,362.582 132.800 C 363.384 131.370,364.251 129.705,364.508 129.100 C 364.765 128.495,365.116 128.000,365.288 128.000 C 365.459 128.000,365.600 127.803,365.600 127.561 C 365.600 127.043,369.926 120.313,370.492 119.951 C 370.932 119.670,372.640 120.034,375.000 120.911 " stroke="none" fill="#ffffff" fill-rule="evenodd"></path></g></svg>